# xmcd CD database file
#
# Track frame offsets:
#	150
#	17179
#	36343
#	52075
#	65744
#	90839
#	106857
#	125188
#	139109
#	152474
#	166166
#	185170
#	205139
#	228590
#	243121
#	260843
#
# Disc length: 3677 seconds
#
# Revision: 0
# Processed by: cddbd v1.5.1PL0 Copyright (c) Steve Scherf et al.
# Submitted via: CDex 1.51
#
DISCID=e20e5b10
DTITLE=Zz Top - Mescalero
DYEAR=2004
DGENRE=Blues
TTITLE0=Mescalero
TTITLE1=Two Ways To Play
TTITLE2=Alley-Gator
TTITLE3=Buck Nekkid
TTITLE4=Goin' So Good
TTITLE5=Me So Stupid
TTITLE6=Piece
TTITLE7=Punk Ass Boyfriend
TTITLE8=Stackin' Paper
TTITLE9=What Would You Do
TTITLE10=What It Is Kid
TTITLE11=Que Lastima
TTITLE12=Tramp
TTITLE13=Crunchy
TTITLE14=Dusted
TTITLE15=Liquor
EXTD=YEAR: 2004
EXTT0=
EXTT1=
EXTT2=
EXTT3=
EXTT4=
EXTT5=
EXTT6=
EXTT7=
EXTT8=
EXTT9=
EXTT10=
EXTT11=
EXTT12=
EXTT13=
EXTT14=
EXTT15=
PLAYORDER=
